<svg id="Capa_1" enable-background="new 0 0 450.823 450.823" height="512" viewBox="0 0 450.823 450.823" width="512" xmlns="http://www.w3.org/2000/svg"><path d="m436.735 140.882h-42.265v-42.264c0-7.787-6.301-14.088-14.088-14.088h-56.353c-7.787 0-14.088 6.301-14.088 14.088v70.441h-169.059v-70.441c0-7.787-6.301-14.088-14.088-14.088h-56.353c-7.787 0-14.088 6.301-14.088 14.088v42.265h-42.265c-7.787-.001-14.088 6.3-14.088 14.088v140.882c0 7.787 6.301 14.088 14.088 14.088h42.265v42.265c0 7.787 6.301 14.088 14.088 14.088h56.353c7.787 0 14.088-6.301 14.088-14.088v-70.441h169.059v70.441c0 7.787 6.301 14.088 14.088 14.088h56.353c7.787 0 14.088-6.301 14.088-14.088v-42.265h42.265c7.787 0 14.088-6.301 14.088-14.088v-140.882c0-7.788-6.301-14.089-14.088-14.089zm-408.559 140.883v-112.706h28.176v112.706zm84.53 56.353h-28.177v-225.412h28.176v225.412zm28.176-84.53v-56.353h169.059v56.353zm225.412 84.53h-28.176v-225.412h28.176zm56.353-56.353h-28.177v-112.706h28.176v112.706z"/></svg>