<svg id="Capa_1" enable-background="new 0 0 450.824 450.824" height="512" viewBox="0 0 450.824 450.824" width="512" xmlns="http://www.w3.org/2000/svg"><path d="m309.941 225.412c0 31.079 25.274 56.353 56.353 56.353s56.353-25.274 56.353-56.353-25.274-56.353-56.353-56.353-56.353 25.273-56.353 56.353zm56.353-28.177c15.533 0 28.176 12.644 28.176 28.176s-12.644 28.176-28.176 28.176-28.176-12.644-28.176-28.176 12.643-28.176 28.176-28.176z"/><path d="m14.089 338.118c22.866 0 33.652 5.765 46.145 12.423 13.827 7.388 29.497 15.753 59.407 15.753 29.924 0 45.608-8.365 59.435-15.753 12.492-6.659 23.292-12.423 46.158-12.423 22.921 0 33.721 5.765 46.241 12.437 13.854 7.374 29.552 15.739 59.504 15.739 29.965 0 45.663-8.365 59.517-15.739 12.52-6.673 23.32-12.437 46.241-12.437 7.787 0 14.088-6.301 14.088-14.088s-6.301-14.088-14.088-14.088c-29.951 0-45.649 8.365-59.49 15.739-12.534 6.673-23.347 12.437-46.268 12.437s-33.735-5.765-46.241-12.437c-13.854-7.374-29.552-15.739-59.504-15.739-29.924 0-45.594 8.365-59.421 15.753-12.492 6.659-23.292 12.424-46.172 12.424-22.866 0-33.652-5.765-46.145-12.424-13.827-7.388-29.497-15.753-59.407-15.753-7.788-.001-14.089 6.3-14.089 14.087s6.301 14.089 14.089 14.089z"/><path d="m78.314 299.987 167.198-82.423c4.939-2.437 8.09-7.639 8.09-13.362l-.014-72.73c0-3.171 1.004-6.313 2.82-8.864l42.265-59.027c4.65-6.516 13.483-7.842 19.729-2.941 3.013 2.349 4.953 5.794 5.489 9.701.523 3.906-.426 7.784-2.683 10.955l-36.624 51.171c-1.83 2.55-2.82 5.649-2.82 8.85l-.012 154.666c.966.509 2.038 1.016 2.984 1.52 7.825 4.176 15.311 7.809 25.191 10.085l.014-161.356 33.804-47.221c6.783-9.471 9.631-21.132 8.035-32.837-1.596-11.718-7.443-22.068-16.468-29.16-7.603-5.981-16.525-8.858-25.378-8.838-12.821.029-25.494 6.134-33.795 17.689l-42.265 59.041c-5.462 7.625-8.461 17.051-8.461 26.565l.014 63.361-175.072 86.3c-2.182 1.077-3.813 2.764-5.152 4.661 11.472 3.118 20.367 7.49 28.293 11.725 1.623.865 3.223 1.644 4.818 2.469z"/><path d="m436.735 366.294c-29.951 0-45.649 8.365-59.49 15.739-12.534 6.673-23.347 12.437-46.268 12.437s-33.735-5.765-46.241-12.437c-13.854-7.374-29.552-15.739-59.504-15.739-29.924 0-45.594 8.365-59.421 15.753-12.492 6.659-23.292 12.424-46.172 12.424-22.866 0-33.652-5.765-46.145-12.423-13.827-7.388-29.497-15.753-59.407-15.753-7.786-.001-14.087 6.3-14.087 14.087s6.301 14.088 14.088 14.088c22.866 0 33.652 5.765 46.145 12.423 13.827 7.388 29.497 15.753 59.407 15.753 29.924 0 45.608-8.365 59.435-15.753 12.492-6.659 23.292-12.423 46.158-12.423 22.921 0 33.721 5.765 46.241 12.437 13.854 7.374 29.552 15.739 59.504 15.739 29.965 0 45.663-8.365 59.517-15.739 12.52-6.673 23.32-12.437 46.241-12.437 7.787 0 14.088-6.301 14.088-14.088s-6.302-14.088-14.089-14.088z"/></svg>